<?xml version="1.0" encoding="iso-8859-1"?>
<!-- Generator: Adobe Illustrator 19.0.0, SVG Export Plug-In . SVG Version: 6.00 Build 0)  -->
<svg version="1.1" id="Layer_1" xmlns="http://www.w3.org/2000/svg" xmlns:xlink="http://www.w3.org/1999/xlink" x="0px" y="0px"
	 viewBox="0 0 512 512" style="enable-background:new 0 0 512 512;" xml:space="preserve">
<g>
	<g>
		<path d="M509.013,97.291L414.708,2.986c-3.983-3.982-10.441-3.982-14.425,0L298.261,105.009
			c-15.334,15.334-23.501,36.559-22.409,58.232c1.128,22.369-7.568,44.541-23.86,60.833L115.209,360.858l-1.888-1.888
			c-3.983-3.982-10.441-3.982-14.425,0L11.21,446.657C3.982,453.887,0,463.499,0,473.722c0,10.224,3.982,19.836,11.211,27.066
			C18.441,508.017,28.053,512,38.277,512c10.224,0,19.836-3.982,27.066-11.211l87.687-87.687c1.912-1.913,2.987-4.507,2.987-7.212
			s-1.075-5.299-2.987-7.212l-1.888-1.888l136.784-136.784c16.291-16.293,38.469-24.996,60.832-23.86
			c21.672,1.094,42.899-7.074,58.232-22.409l102.023-102.023C512.996,107.733,512.996,101.275,509.013,97.291z M50.919,486.364
			c-3.377,3.377-7.867,5.237-12.642,5.237s-9.265-1.859-12.642-5.237c-3.377-3.377-5.236-7.866-5.236-12.642
			c0-4.775,1.859-9.265,5.236-12.642l80.475-80.474l25.284,25.284L50.919,486.364z M392.565,199.315
			c-11.264,11.263-26.861,17.26-42.781,16.461c-28.12-1.419-55.923,9.445-76.284,29.808L136.717,382.366l-7.084-7.084
			l136.785-136.784c20.362-20.363,31.227-48.168,29.808-76.285c-0.804-15.923,5.197-31.516,16.461-42.78l94.811-94.811l79.881,79.88
			L392.565,199.315z"/>
	</g>
</g>
<g>
	<g>
		<path d="M378.892,89.891c-3.984-3.981-10.441-3.982-14.424,0l-28.966,28.965c-3.983,3.983-3.984,10.441,0,14.425
			c1.992,1.991,4.602,2.987,7.212,2.987s5.221-0.996,7.212-2.987l28.966-28.965C382.875,100.333,382.875,93.875,378.892,89.891z"/>
	</g>
</g>
<g>
	<g>
		<path d="M410.575,58.21c-3.983-3.983-10.44-3.983-14.424-0.001l-5.516,5.515c-3.983,3.983-3.984,10.44,0,14.424
			c1.992,1.992,4.602,2.988,7.212,2.988s5.22-0.996,7.212-2.987l5.516-5.515C414.558,68.651,414.559,62.194,410.575,58.21z"/>
	</g>
</g>
<g>
	<g>
		<path d="M453.791,101.424c-3.983-3.981-10.441-3.982-14.424,0l-60.649,60.648c-3.983,3.984-3.983,10.442,0,14.425
			c1.992,1.991,4.602,2.987,7.212,2.987s5.221-0.996,7.212-2.987l60.649-60.648C457.774,111.866,457.775,105.408,453.791,101.424z"
			/>
	</g>
</g>
<g>
	<g>
		<path d="M432.183,79.816c-3.983-3.982-10.441-3.982-14.425,0l-60.649,60.649c-3.982,3.984-3.982,10.442,0.001,14.425
			c1.992,1.991,4.602,2.987,7.212,2.987s5.221-0.996,7.212-2.987l60.649-60.648C436.166,90.258,436.166,83.8,432.183,79.816z"/>
	</g>
</g>
<g>
</g>
<g>
</g>
<g>
</g>
<g>
</g>
<g>
</g>
<g>
</g>
<g>
</g>
<g>
</g>
<g>
</g>
<g>
</g>
<g>
</g>
<g>
</g>
<g>
</g>
<g>
</g>
<g>
</g>
</svg>
